HIERARCHY
ROOT WRIST
{
	OFFSET 0.000000 0.000000 0.000000
	CHANNELS 6 Xposition Yposition Zposition Yrotation Xrotation Zrotation
	JOINT THUMB_CMC_FE
	{
		OFFSET 0.225143 0.117753 -0.062308
		CHANNELS 3 Yrotation Xrotation Zrotation
		JOINT THUMB_CMC_AA
		{
			OFFSET 0.212856 -0.150507 0.098851
			CHANNELS 3 Yrotation Xrotation Zrotation
			JOINT THUMB_MCP_FE
			{
				OFFSET -0.322503 -0.167445 -0.031436
				CHANNELS 3 Yrotation Xrotation Zrotation
				JOINT THUMB_IP_FE
				{
					OFFSET 0.295233 -0.236404 0.025845
					CHANNELS 3 Yrotation Xrotation Zrotation
					End Site
					{
						OFFSET 0.000000 0.000000 0.000000
					}
				}
			}
		}
	}
	JOINT INDEX_MCP
	{
		OFFSET 1.076913 0.264198 -0.014768
		CHANNELS 3 Yrotation Xrotation Zrotation
		JOINT INDEX_PIP_FE
		{
			OFFSET 0.425053 0.013289 0.013619
			CHANNELS 3 Yrotation Xrotation Zrotation
			JOINT INDEX_DIP_FE
			{
				OFFSET 0.271505 -0.024898 0.000550
				CHANNELS 3 Yrotation Xrotation Zrotation
				End Site
				{
					OFFSET 0.000000 0.000000 0.000000
				}
			}
		}
	}
	JOINT MIDDLE_MCP
	{
		OFFSET 1.072991 0.019362 0.038780
		CHANNELS 3 Yrotation Xrotation Zrotation
		JOINT MIDDLE_PIP_FE
		{
			OFFSET 0.480704 0.002618 0.028696
			CHANNELS 3 Yrotation Xrotation Zrotation
			JOINT MIDDLE_DIP_FE
			{
				OFFSET 0.307486 -0.031129 -0.000643
				CHANNELS 3 Yrotation Xrotation Zrotation
				End Site
				{
					OFFSET 0.000000 0.000000 0.000000
				}
			}
		}
	}
	JOINT RING_MCP
	{
		OFFSET 0.994992 -0.195930 -0.005938
		CHANNELS 3 Yrotation Xrotation Zrotation
		JOINT RING_PIP_FE
		{
			OFFSET 0.436995 0.003792 0.019994
			CHANNELS 3 Yrotation Xrotation Zrotation
			JOINT RING_DIP_FE
			{
				OFFSET 0.295558 -0.038341 -0.006642
				CHANNELS 3 Yrotation Xrotation Zrotation
				End Site
				{
					OFFSET 0.000000 0.000000 0.000000
				}
			}
		}
	}
	JOINT PINKY_MCP
	{
		OFFSET 0.873858 -0.393246 -0.086282
		CHANNELS 3 Yrotation Xrotation Zrotation
		JOINT PINKY_PIP_FE
		{
			OFFSET 0.343972 -0.016492 0.013445
			CHANNELS 3 Yrotation Xrotation Zrotation
			JOINT PINKY_DIP_FE
			{
				OFFSET 0.224713 -0.036309 -0.010265
				CHANNELS 3 Yrotation Xrotation Zrotation
				End Site
				{
					OFFSET 0.000000 0.000000 0.000000
				}
			}
		}
	}
}
MOTION
Frames: 20
Frame Time: 0.008333334
-1.435581 2.127760 1.229700 175.108900 -72.167600 77.904220 61.461190 4.834458 73.970200 119.353000 -30.976930 37.792050 -112.864100 -65.843290 -35.543730 4.562085 -8.459869 -57.987790 -173.315200 3.402464 179.742000 -41.978360 -86.125550 -30.113250 -2.052643 1.704995 -42.577820 -145.289700 -3.844543 -172.211500 -39.241670 -88.411440 -6.622345 -6.002502 4.395445 -69.637570 -142.934600 -12.826930 -175.408000 -31.479950 -85.617740 -14.293730 0.199314 0.562920 -39.562620 -122.798000 -22.332310 -173.925000 -48.977720 -83.530640 21.368240 5.539815 0.809178 -50.716430 
-1.416675 2.136649 1.229318 177.908900 -70.037660 74.761850 61.461160 4.834472 73.763960 119.352900 -30.976930 37.695450 -112.864000 -65.843290 -35.394500 4.562095 -8.459839 -57.987820 -173.247300 3.401727 179.861200 -41.978300 -86.125670 -29.779720 -2.052643 1.705010 -42.862180 -144.712200 -3.886627 -172.207600 -39.241180 -88.411560 -6.623718 -6.002533 4.395444 -67.659910 -142.689100 -12.859500 -175.514800 -31.479580 -85.617800 -13.846190 0.199294 0.562941 -40.134520 -123.320500 -22.338320 -173.522900 -48.977600 -83.530610 19.535060 5.539802 0.809184 -51.611940 
-1.401277 2.139878 1.231776 179.544700 -67.341310 72.882880 61.461180 4.834455 74.101110 119.352900 -30.976930 38.248670 -112.864000 -65.843260 -35.467470 4.562077 -8.459839 -57.987790 -172.373400 3.391797 179.630400 -41.978330 -86.125550 -29.644530 -2.052643 1.705016 -43.015200 -143.180500 -3.996246 -172.557700 -39.241300 -88.411440 -6.077118 -6.002533 4.395460 -65.556730 -141.284900 -13.041350 -176.056100 -31.479770 -85.617740 -12.871490 0.199298 0.562947 -40.338680 -121.979000 -22.319550 -173.947300 -48.977540 -83.530580 20.399140 5.539784 0.809197 -51.581330 
-1.383674 2.149179 1.231470 -178.533400 -65.035100 70.791850 61.461170 4.834453 74.341320 119.352900 -30.976930 38.440460 -112.864000 -65.843260 -35.633090 4.562059 -8.459869 -57.987820 -172.309200 3.391035 179.616800 -41.978580 -86.125670 -29.837590 -2.052612 1.705012 -42.993130 -142.842300 -4.020081 -172.635100 -39.241520 -88.411440 -6.126617 -6.002533 4.395444 -64.227080 -140.922900 -13.086940 -176.135400 -31.479800 -85.617800 -12.474060 0.199301 0.562949 -40.690640 -121.589100 -22.312040 -174.329200 -48.977570 -83.530580 21.661200 5.539801 0.809184 -51.588960 
-1.360978 2.162831 1.230422 -176.368900 -62.848820 68.397800 61.461190 4.834468 74.492190 119.352900 -30.976930 38.556880 -112.864000 -65.843230 -36.755000 4.562067 -8.459869 -57.987820 -172.618200 3.394651 179.967500 -41.978330 -86.125670 -30.146450 -2.052643 1.705003 -42.783690 -142.937900 -4.013367 -172.342500 -39.241300 -88.411440 -6.427582 -6.002502 4.395447 -63.304470 -141.170600 -13.055820 -175.947700 -31.480070 -85.617830 -12.531860 0.199291 0.562945 -41.230990 -122.359200 -22.325990 -173.713700 -48.977600 -83.530580 20.418270 5.539808 0.809171 -51.852450 
-1.340726 2.173079 1.231551 -175.094100 -60.406590 66.936750 61.461180 4.834466 74.519420 119.352900 -30.976930 38.873200 -112.864000 -65.843260 -36.591090 4.562077 -8.459839 -57.987790 -172.248200 3.390310 179.846600 -41.978360 -86.125610 -29.957790 -2.052612 1.705005 -42.868650 -142.684600 -4.031128 -172.526200 -39.241580 -88.411440 -6.844788 -6.002502 4.395432 -61.525180 -140.852200 -13.095790 -176.076300 -31.479800 -85.617800 -12.569890 0.199312 0.562917 -41.137940 -122.019200 -22.320280 -173.875100 -48.977690 -83.530580 21.416640 5.539809 0.809185 -51.543150 
-1.318968 2.185950 1.229933 -173.845900 -58.151950 65.622780 61.461170 4.834461 74.151340 119.352900 -30.976960 38.492910 -112.864000 -65.843290 -36.307710 4.562085 -8.459869 -57.987790 -172.329600 3.391277 179.983600 -41.978450 -86.125550 -29.734190 -2.052643 1.705001 -43.003630 -143.079700 -4.003357 -172.429600 -39.242070 -88.411440 -7.736877 -6.002502 4.395436 -60.557740 -141.141400 -13.059480 -175.917400 -31.480040 -85.617740 -12.932400 0.199303 0.562930 -40.906250 -122.450300 -22.327390 -173.885000 -48.977720 -83.530580 21.481180 5.539789 0.809188 -51.267120 
-1.298304 2.194028 1.230856 -173.348300 -55.591430 65.162570 61.461170 4.834463 74.197690 119.352900 -30.976930 38.555630 -112.864000 -65.843260 -36.499570 4.562085 -8.459839 -57.987820 -172.155500 3.389180 -179.902200 -41.978270 -86.125670 -29.789460 -2.052643 1.704997 -42.933410 -142.902300 -4.015869 -172.420500 -39.241640 -88.411440 -8.172302 -6.002533 4.395458 -59.171050 -140.598400 -13.127380 -175.953000 -31.479860 -85.617860 -11.642730 0.199291 0.562946 -39.550450 -122.337100 -22.325620 -173.385100 -48.977600 -83.530550 21.695100 5.539789 0.809181 -50.964510 
-1.276293 2.208529 1.229355 -172.421900 -53.281950 64.267690 61.461170 4.834453 73.943610 119.352900 -30.976930 38.616340 -112.864000 -65.843290 -36.348850 4.562078 -8.459839 -57.987790 -172.119400 3.388754 -179.822900 -41.978330 -86.125700 -29.587590 -2.052643 1.705000 -43.153080 -143.150500 -3.998383 -172.454700 -39.242280 -88.411320 -9.066040 -6.002502 4.395442 -56.704620 -140.903900 -13.089320 -175.802200 -31.479920 -85.617740 -11.935700 0.199304 0.562940 -39.715360 -123.005400 -22.334900 -173.060900 -48.977570 -83.530550 21.654770 5.539810 0.809187 -50.763640 
-1.253020 2.223619 1.227654 -171.793300 -51.180970 63.610100 61.461170 4.834455 73.854230 119.352900 -30.976960 38.443460 -112.864000 -65.843290 -36.071080 4.562097 -8.459839 -57.987820 -172.777000 3.396482 -179.992800 -41.978520 -86.125610 -30.228640 -2.052612 1.704992 -43.092220 -144.009900 -3.937225 -172.915500 -39.241460 -88.411560 -10.947910 -6.002533 4.395453 -54.160490 -141.463800 -13.018620 -175.971200 -31.480220 -85.617740 -12.394840 0.199317 0.562924 -39.095830 -124.202100 -22.344640 -172.947900 -48.977840 -83.530610 21.086750 5.539805 0.809181 -50.792300 
-1.229297 2.238204 1.226897 -171.435100 -48.962920 63.317230 61.461190 4.834451 73.850430 119.352900 -30.976930 38.243180 -112.864000 -65.843260 -36.523650 4.562091 -8.459839 -57.987790 -173.013300 3.399150 -179.938400 -41.978360 -86.125550 -30.383000 -2.052643 1.705007 -42.783200 -144.503900 -3.901703 -173.132000 -39.241730 -88.411440 -12.508510 -6.002533 4.395458 -51.584660 -141.857600 -12.968140 -175.876200 -31.479800 -85.617800 -13.369480 0.199299 0.562924 -38.395510 -124.741600 -22.346160 -172.687300 -48.977840 -83.530610 21.602950 5.539801 0.809193 -50.726350 
-1.205476 2.254076 1.225558 -171.071700 -46.746120 63.088130 61.461170 4.834465 74.006310 119.352900 -30.976930 38.321290 -112.864000 -65.843290 -37.132200 4.562092 -8.459839 -57.987820 -172.867700 3.397508 -179.906100 -41.978270 -86.125550 -30.006770 -2.052643 1.705005 -42.207920 -144.796300 -3.880524 -173.337900 -39.241850 -88.411440 -13.557650 -6.002533 4.395449 -49.780610 -142.253300 -12.916780 -175.830000 -31.479800 -85.617800 -14.340670 0.199293 0.562936 -38.316250 -125.491800 -22.345280 -172.171500 -48.977630 -83.530580 21.840050 5.539813 0.809180 -50.282680 
-1.181045 2.271807 1.223215 -170.817000 -44.598570 62.975200 61.461180 4.834461 73.952010 119.352900 -30.976930 38.422850 -112.864000 -65.843260 -37.130220 4.562087 -8.459869 -57.987820 -173.122300 3.400352 179.909800 -41.978390 -86.125610 -31.143980 -2.052643 1.705000 -42.278140 -145.104100 -3.858124 -173.787200 -39.242030 -88.411560 -14.692840 -6.002502 4.395438 -47.498080 -142.242400 -12.918210 -175.949200 -31.479770 -85.617800 -13.836730 0.199312 0.562914 -36.983490 -126.417600 -22.339480 -171.594200 -48.977780 -83.530610 21.186690 5.539786 0.809175 -49.866210 
-1.154037 2.292317 1.219009 -170.315600 -42.515170 62.741630 61.461190 4.834456 73.968520 119.352900 -30.976930 38.476440 -112.863900 -65.843260 -37.680080 4.562093 -8.459869 -57.987820 -173.120800 3.400334 179.990000 -41.978240 -86.125550 -30.616420 -2.052643 1.704993 -41.914460 -145.683900 -3.815613 -174.058700 -39.241150 -88.411440 -15.973140 -6.002533 4.395445 -45.162050 -142.840200 -12.839480 -175.750800 -31.479740 -85.617740 -14.671690 0.199304 0.562919 -36.002500 -127.662300 -22.323330 -170.770700 -48.977870 -83.530610 21.322230 5.539812 0.809170 -49.411710 
-1.130193 2.308910 1.217207 -170.366700 -40.293820 63.071240 61.461190 4.834456 74.055350 119.352900 -30.976960 38.428710 -112.864000 -65.843290 -37.484100 4.562091 -8.459839 -57.987790 -173.235100 3.401595 179.564300 -41.978420 -86.125550 -31.383150 -2.052612 1.704988 -41.833310 -145.874500 -3.801544 -174.777300 -39.241580 -88.411190 -17.057100 -6.002533 4.395448 -43.027400 -142.788600 -12.846340 -176.321800 -31.479710 -85.617800 -14.885990 0.199312 0.562933 -35.306240 -128.163100 -22.314180 -170.647800 -48.977810 -83.530670 22.003760 5.539786 0.809183 -48.811550 
-1.100875 2.331261 1.211942 -169.941200 -38.210970 63.055680 61.461170 4.834466 73.777830 119.352900 -30.976930 38.203160 -112.863900 -65.843260 -37.563900 4.562080 -8.459839 -57.987790 -173.393900 3.403317 179.607300 -41.978580 -86.125670 -31.418550 -2.052612 1.704993 -41.911560 -146.410200 -3.761810 -174.912200 -39.241090 -88.411320 -17.906560 -6.002533 4.395455 -41.122530 -143.530800 -12.746800 -175.975600 -31.480100 -85.617800 -15.869320 0.199312 0.562919 -34.791870 -129.973000 -22.268190 -169.411800 -48.977750 -83.530580 20.790770 5.539802 0.809181 -48.755710 
-1.072297 2.354110 1.205301 -169.543600 -36.244570 63.117480 61.461190 4.834451 73.996120 119.353000 -30.976930 38.426470 -112.863400 -65.843720 -37.571500 4.562089 -8.459839 -57.987820 -173.239600 3.401747 179.487000 -41.973300 -86.125150 -31.367280 -2.052307 1.705089 -41.818850 -145.977500 -3.789948 -174.900100 -39.374050 -88.415370 -17.069000 -5.994629 4.400181 -42.795840 -142.949800 -12.821350 -176.360500 -31.516330 -85.621280 -15.027070 0.203303 0.565861 -35.109310 -128.733600 -22.269930 -170.631700 -49.013240 -83.537540 21.933570 5.557361 0.873477 -47.985110 
-1.041749 2.377228 1.202307 -169.186600 -33.860020 63.149140 61.461170 4.834468 73.726760 119.352800 -30.976930 38.207600 -112.863100 -65.843690 -37.649140 4.562093 -8.459839 -57.987820 -173.393800 3.403315 179.528800 -41.973210 -86.125240 -31.401860 -2.052246 1.705109 -41.894780 -146.497500 -3.752045 -175.031100 -39.346980 -88.414640 -17.920040 -5.996704 4.398879 -40.947050 -143.670100 -12.724580 -176.024800 -31.511470 -85.620880 -15.986820 0.203168 0.565795 -34.610050 -130.490200 -22.220030 -169.432900 -49.004390 -83.535340 20.746960 5.560139 0.875310 -47.931180 
-1.009999 2.402323 1.197051 -168.911200 -31.687960 63.249150 61.461190 4.834456 73.938430 119.353000 -30.976930 38.424070 -112.862900 -65.844120 -37.656220 4.562085 -8.459839 -57.987820 -173.244100 3.401890 179.412200 -41.969060 -86.124850 -31.351230 -2.052002 1.705175 -41.804900 -146.077900 -3.778870 -175.019300 -39.495880 -88.419460 -17.087950 -5.987396 4.404484 -42.569580 -143.106800 -12.797120 -176.397800 -31.549990 -85.624540 -15.166660 0.206977 0.568540 -34.917850 -129.288900 -22.226810 -170.615500 -49.045930 -83.543910 21.862500 5.573578 0.932255 -47.183690 
-0.979418 2.428186 1.191610 -168.536300 -29.437410 63.589040 61.461170 4.834455 73.880750 119.353000 -30.976930 38.421670 -112.862400 -65.844480 -37.740910 4.562084 -8.459839 -57.987820 -173.248600 3.402025 179.337400 -41.965060 -86.124600 -31.334930 -2.051727 1.705267 -41.790950 -146.178300 -3.768005 -175.138600 -39.610780 -88.423070 -17.113890 -5.980591 4.408483 -42.343290 -143.263800 -12.773010 -176.435200 -31.581450 -85.627530 -15.308440 0.210435 0.571020 -34.726380 -129.844400 -22.183500 -170.599800 -49.076660 -83.549900 21.789270 5.589024 0.987461 -46.382200 
